<svg width="323" height="80" viewBox="0 0 323 80" fill="none" xmlns="http://www.w3.org/2000/svg">
	<path fill-rule="evenodd" clip-rule="evenodd" d="M176.464 42.495C176.464 29.5176 165.936 18.9901 152.949 18.9901C139.963 18.9901 129.435 29.5176 129.435 42.495C129.435 55.4724 139.963 66 152.949 66C165.936 66 176.464 55.4724 176.464 42.495ZM138.479 42.495C138.479 50.4836 144.957 56.9596 152.949 56.9596C160.941 56.9596 167.42 50.4836 167.42 42.495C167.42 34.5065 160.941 28.0304 152.949 28.0304C144.957 28.0304 138.479 34.5064 138.479 42.495Z" fill="black"/>
	<path d="M126.057 59.6288C126.479 60.4037 126.284 61.3763 125.557 61.8763C121.773 64.4773 117.19 66 112.251 66C99.2641 66 88.7362 55.4724 88.7362 42.495C88.7362 29.5176 99.2641 18.9901 112.251 18.9901C117.19 18.9901 121.773 20.5127 125.557 23.1137C126.284 23.6137 126.479 24.5863 126.057 25.3611L123.506 30.0454C122.932 31.0998 121.504 31.3096 120.519 30.6228C118.175 28.9887 115.325 28.0304 112.251 28.0304C104.259 28.0304 97.7802 34.5065 97.7802 42.495C97.7802 50.4836 104.259 56.9596 112.251 56.9596C115.325 56.9596 118.175 56.0013 120.519 54.3672C121.504 53.6804 122.932 53.8902 123.506 54.9446L126.057 59.6288Z" fill="black"/>
	<path fill-rule="evenodd" clip-rule="evenodd" d="M204.501 18.9901C209.958 18.9901 214.981 20.8491 218.971 23.9676V1.81C218.971 0.810364 219.782 0 220.782 0H226.204C227.204 0 228.015 0.810365 228.015 1.81V42.4395L228.015 42.495C228.015 55.4724 217.487 66 204.501 66C191.514 66 180.986 55.4724 180.986 42.495C180.986 29.5176 191.514 18.9901 204.501 18.9901ZM190.03 42.495C190.03 50.4836 196.509 56.9596 204.501 56.9596C212.493 56.9596 218.971 50.4836 218.971 42.495C218.971 34.5065 212.493 28.0304 204.501 28.0304C196.509 28.0304 190.03 34.5064 190.03 42.495Z" fill="black"/>
	<path d="M276.881 44.3045V21.6988C276.881 20.6992 276.07 19.8888 275.07 19.8888H269.648C268.648 19.8888 267.837 20.6992 267.837 21.6988V44.3017C267.837 51.2895 262.168 56.9543 255.175 56.9543C248.182 56.9543 242.513 51.2895 242.513 44.3017L242.513 21.6988C242.513 20.6992 241.702 19.8888 240.702 19.8888H235.28C234.28 19.8888 233.469 20.6992 233.469 21.6988V44.3045C233.469 56.2837 243.187 65.9947 255.175 65.9947C267.163 65.9947 276.881 56.2837 276.881 44.3045Z" fill="black"/>
	<path d="M291.33 20.6107C290.988 20.1562 290.452 19.8888 289.882 19.8888H283.223C281.729 19.8888 280.878 21.594 281.776 22.7869L295.789 41.4021C296.274 42.0465 296.274 42.9338 295.789 43.5782L281.776 62.1925C280.878 63.3854 281.729 65.0906 283.223 65.0906H289.882C290.452 65.0906 290.988 64.8233 291.33 64.3687L300.757 51.846C301.481 50.8834 302.927 50.8834 303.652 51.846L313.079 64.3687C313.421 64.8233 313.957 65.0906 314.526 65.0906H321.185C322.679 65.0906 323.531 63.3854 322.633 62.1925L308.62 43.5782C308.134 42.9338 308.134 42.0465 308.62 41.4021L322.633 22.7869C323.531 21.594 322.679 19.8888 321.185 19.8888H314.526C313.957 19.8888 313.421 20.1562 313.079 20.6107L303.652 33.1334C302.927 34.096 301.481 34.096 300.757 33.1334L291.33 20.6107Z" fill="black"/>
	<path fill-rule="evenodd" clip-rule="evenodd" d="M52.445 19.4119C52.445 22.3348 51.7986 25.1068 50.6409 27.5929C59.4385 29.4442 66.0429 37.2454 66.0429 46.5881C66.0429 57.309 57.3462 66 46.6184 66H19.4245C8.69663 66 0 57.309 0 46.5881C0 37.2459 6.60364 29.4451 15.4005 27.5932C14.2427 25.107 13.5963 22.3349 13.5963 19.4119C13.5963 8.69102 22.2929 0 33.0207 0C43.7484 0 52.445 8.69102 52.445 19.4119Z" fill="#495CEF"/>
	<path d="M41.9945 25.3721L35.241 21.7286C33.8369 20.9711 32.1452 20.9728 30.7427 21.7332L24.0275 25.374C22.6726 26.1085 22.6726 28.0519 24.0275 28.7865L30.7427 32.4273C32.1452 33.1877 33.8369 33.1894 35.241 32.4319L41.9945 28.7884C43.3541 28.0549 43.3541 26.1056 41.9945 25.3721Z" fill="white"/>
</svg>
